<svg xmlns="http://www.w3.org/2000/svg" xmlns:xlink="http://www.w3.org/1999/xlink" width="48" height="48" viewBox="0 0 48 48">
  <path transform="translate(-23 -15)" fill="#2D63D9" d="M39.862 37.306c.213.172.213.481.036.687l-5.17 5.46c-.107.103-.249.172-.355.172a.516.516 0 0 1-.354-.137c-.213-.172-.213-.481-.036-.687l5.171-5.46c.177-.206.496-.206.709-.035zm15.194-7.555c-.212-.206-.531-.206-.708 0l-9.315 8.998c-.318.309-.814.309-1.098 0l-9.314-8.998c-.213-.206-.531-.206-.709 0-.212.206-.212.515 0 .687l9.28 8.997c.354.344.779.516 1.275.516.495 0 .92-.172 1.275-.516l9.279-8.997c.212-.206.212-.515.035-.687zM66 37.101c0 .137-.035.308-.177.411l-4.675 3.95a.843.843 0 0 1-.602.24c-.567 0-1.063-.48-2.302-1.854a3.012 3.012 0 0 1-.354-.619c-.071-.137-.177-.377-.248-.515-1.665.31-3.046.927-4.286 1.958-.035.034-.035.068-.07.068-.107.07-.178.138-.248.206-.071.07-.178.138-.248.206-.036.035-.071.035-.107.07-1.204 1.03-2.018 2.266-2.55 3.845.142.103.355.24.496.31.284.171.46.274.602.411 1.204 1.305 1.63 1.89 1.594 2.404 0 .24-.142.447-.319.618l-4.746 4.053c-.106.068-.212.137-.318.137h-.107c-1.38-.275-2.833-1.58-2.868-4.499 0-.309.141-.686.318-1.099.107-.206.248-.583.248-.686 0-.515.071-1.03.213-1.511h-10.66c-1.417 0-2.586-1.134-2.586-2.507V30.507C32 29.133 33.169 28 34.585 28h19.798c1.417 0 2.586 1.133 2.586 2.507v3.812a8.22 8.22 0 0 1 2.054-.275c.283 0 .567 0 .85.034.177 0 .496-.068.744-.137.425-.103.85-.206 1.168-.172 2.975.378 4.109 1.958 4.215 3.331zm-20.435 7.073c.885-2.232 2.798-4.12 4.852-5.872l.212-.206c1.594-1.34 3.365-2.713 5.313-3.468v-4.121c0-.859-.709-1.545-1.594-1.545H34.585c-.885 0-1.593.686-1.593 1.545v12.122c0 .859.708 1.545 1.593 1.545h10.98zm19.408-7.245c-.177-.928-1.133-1.924-3.33-2.198-.176 0-.495.068-.778.137-.425.103-.85.206-1.134.172-.248-.035-.496-.035-.708-.035-2.833 0-5.49 1.958-7.72 3.847l-.249.206c-2.585 2.197-4.958 4.636-4.994 7.623 0 .31-.141.653-.318 1.065-.107.24-.248.584-.248.721 0 2.163.92 3.194 1.806 3.503l4.462-3.812c-.106-.31-.956-1.27-1.345-1.648a2.268 2.268 0 0 0-.355-.206c-.566-.31-1.168-.687-.991-1.271.602-1.854 1.558-3.297 2.975-4.533.035-.034.035-.034.07-.034.071-.069.142-.103.213-.172.071-.069.142-.103.213-.172 0-.034.035-.034.07-.068 1.417-1.202 3.01-1.924 5.03-2.267h.106c.531 0 .814.584 1.062 1.133.071.138.142.31.177.378.355.412 1.205 1.374 1.523 1.511l4.463-3.88z"/>
</svg>
